ffmpeg started on 2026-01-20 at 13:22:39
Report written to "D:\Convert\FFMetrics\reports\psnr_report-6.txt"
Log level: 32
Command line:
ffmpeg -hide_banner -nostdin -r 24000/1001 -i "F:\\Convert\\files\\[DC] Make Heroine ga Oosugiru - 07_Telegram_HEVC(192).mkv" -r 24000/1001 -i "F:\\Convert\\files\\[DC] Make Heroine ga Oosugiru - 07_Telegram.mp4" -lavfi "[0:v]settb=AVTB,setpts=PTS-STARTPTS,format=pix_fmts=yuv420p10le,fps=24000/1001,scale=1920:1080:flags=lanczos:param0=3:out_range=limited:out_color_matrix=bt709:out_chroma_loc=left,setsar=1/1,setdar=(1920/1080)*(1/1),colorspace=format=yuv420p10:range=tv:primaries=bt709:trc=bt709:space=bt709:fast=0[main];[1:v]settb=AVTB,setpts=PTS-STARTPTS,format=pix_fmts=yuv420p,fps=24000/1001,scale=1920:1080:flags=lanczos:param0=3:out_range=limited:out_color_matrix=bt709:out_chroma_loc=left,setsar=1.000,setdar=1.778,colorspace=format=yuv420p:range=tv:primaries=bt709:trc=bt709:space=bt709:fast=0[ref];[main][ref]psnr=eof_action=endall:stats_file='D\\:/Convert/FFMetrics/logs/psnr_logfile-6.txt'" -f null -
Input #0, matroska,webm, from 'F:\Convert\files\[DC] Make Heroine ga Oosugiru - 07_Telegram_HEVC(192).mkv':
  Metadata:
    COMPATIBLE_BRANDS: isomiso2avc1mp41
    MAJOR_BRAND     : isom
    MINOR_VERSION   : 512
    ENCODER         : Lavf61.7.100
  Duration: 00:24:06.79, start: -0.021000, bitrate: 971 kb/s
  Stream #0:0: Video: hevc (Main 10), yuv420p10le(tv, bt709, progressive), 1920x1080 [SAR 1:1 DAR 16:9], 23.98 fps, 23.98 tbr, 1k tbn (default)
      Metadata:
        HANDLER_NAME    : VideoHandler
        VENDOR_ID       : [0][0][0][0]
        ENCODER         : Lavc61.19.100 libx265
        BPS             : 774171
        DURATION        : 00:24:06.569708333
        NUMBER_OF_FRAMES: 34683
        NUMBER_OF_BYTES : 139986508
        _STATISTICS_WRITING_APP: mkvpropedit v94.0 ('Initiate') 64-bit
        _STATISTICS_WRITING_DATE_UTC: 2026-01-19 15:19:46
        _STATISTICS_TAGS: BPS DURATION NUMBER_OF_FRAMES NUMBER_OF_BYTES
  Stream #0:1: Audio: aac (LC), 48000 Hz, stereo, fltp (default)
      Metadata:
        HANDLER_NAME    : SoundHandler
        VENDOR_ID       : [0][0][0][0]
        ENCODER         : Lavc61.19.100 aac
        BPS             : 193194
        DURATION        : 00:24:06.784000000
        NUMBER_OF_FRAMES: 67819
        NUMBER_OF_BYTES : 34938755
        _STATISTICS_WRITING_APP: mkvpropedit v94.0 ('Initiate') 64-bit
        _STATISTICS_WRITING_DATE_UTC: 2026-01-19 15:19:46
        _STATISTICS_TAGS: BPS DURATION NUMBER_OF_FRAMES NUMBER_OF_BYTES
Input #1, mov,mp4,m4a,3gp,3g2,mj2, from 'F:\Convert\files\[DC] Make Heroine ga Oosugiru - 07_Telegram.mp4':
  Metadata:
    major_brand     : isom
    minor_version   : 512
    compatible_brands: isomiso2avc1mp41
    encoder         : Lavf60.16.100
  Duration: 00:24:06.74, start: 0.000000, bitrate: 3764 kb/s
  Stream #1:0[0x1](und): Video: h264 (High) (avc1 / 0x31637661), yuv420p(tv, bt709, progressive), 1920x1080 [SAR 1:1 DAR 16:9], 3616 kb/s, 23.98 fps, 23.98 tbr, 24k tbn (default)
      Metadata:
        handler_name    : VideoHandler
        vendor_id       : [0][0][0][0]
        encoder         : Lavc60.31.102 h264_qsv
  Stream #1:1[0x2](und): Audio: aac (HE-AACv2) (mp4a / 0x6134706D), 48000 Hz, stereo, fltp, 144 kb/s (default)
      Metadata:
        handler_name    : SoundHandler
        vendor_id       : [0][0][0][0]
Stream mapping:
  Stream #0:0 (hevc) -> settb:default
  Stream #1:0 (h264) -> settb:default
  psnr:default -> Stream #0:0 (wrapped_avframe)
  Stream #0:1 -> #0:1 (aac (native) -> pcm_s16le (native))
Output #0, null, to 'pipe:':
  Metadata:
    COMPATIBLE_BRANDS: isomiso2avc1mp41
    MAJOR_BRAND     : isom
    MINOR_VERSION   : 512
    encoder         : Lavf61.7.100
  Stream #0:0: Video: wrapped_avframe, yuv420p10le(tv, bt709, progressive), 1920x1080 [SAR 1:1 DAR 16:9], q=2-31, 200 kb/s, 23.98 fps, 23.98 tbn
      Metadata:
        encoder         : Lavc61.19.100 wrapped_avframe
  Stream #0:1: Audio: pcm_s16le, 48000 Hz, stereo, s16, 1536 kb/s (default)
      Metadata:
        HANDLER_NAME    : SoundHandler
        VENDOR_ID       : [0][0][0][0]
        _STATISTICS_TAGS: BPS DURATION NUMBER_OF_FRAMES NUMBER_OF_BYTES
        BPS             : 193194
        DURATION        : 00:24:06.784000000
        NUMBER_OF_FRAMES: 67819
        NUMBER_OF_BYTES : 34938755
        _STATISTICS_WRITING_APP: mkvpropedit v94.0 ('Initiate') 64-bit
        _STATISTICS_WRITING_DATE_UTC: 2026-01-19 15:19:46
        encoder         : Lavc61.19.100 pcm_s16le
frame=  140 fps=0.0 q=-0.0 size=N/A time=00:00:05.83 bitrate=N/A speed=11.3x    frame=  329 fps=321 q=-0.0 size=N/A time=00:00:13.72 bitrate=N/A speed=13.4x    frame=  533 fps=347 q=-0.0 size=N/A time=00:00:22.23 bitrate=N/A speed=14.5x    frame=  741 fps=360 q=-0.0 size=N/A time=00:00:30.90 bitrate=N/A speed=  15x    frame=  914 fps=356 q=-0.0 size=N/A time=00:00:38.12 bitrate=N/A speed=14.8x    frame= 1056 fps=341 q=-0.0 size=N/A time=00:00:44.04 bitrate=N/A speed=14.2x    frame= 1214 fps=337 q=-0.0 size=N/A time=00:00:50.63 bitrate=N/A speed=  14x    frame= 1377 fps=334 q=-0.0 size=N/A time=00:00:57.43 bitrate=N/A speed=  14x    frame= 1534 fps=330 q=-0.0 size=N/A time=00:01:03.98 bitrate=N/A speed=13.8x    frame= 1676 fps=325 q=-0.0 size=N/A time=00:01:09.90 bitrate=N/A speed=13.6x    frame= 1847 fps=326 q=-0.0 size=N/A time=00:01:17.03 bitrate=N/A speed=13.6x    frame= 2025 fps=327 q=-0.0 size=N/A time=00:01:24.45 bitrate=N/A speed=13.6x    frame= 2122 fps=317 q=-0.0 size=N/A time=00:01:28.50 bitrate=N/A speed=13.2x    frame= 2277 fps=316 q=-0.0 size=N/A time=00:01:34.96 bitrate=N/A speed=13.2x    frame= 2429 fps=314 q=-0.0 size=N/A time=00:01:41.30 bitrate=N/A speed=13.1x    frame= 2564 fps=310 q=-0.0 size=N/A time=00:01:46.94 bitrate=N/A speed=12.9x    frame= 2733 fps=311 q=-0.0 size=N/A time=00:01:53.98 bitrate=N/A speed=  13x    frame= 2913 fps=313 q=-0.0 size=N/A time=00:02:01.49 bitrate=N/A speed=13.1x    frame= 3105 fps=316 q=-0.0 size=N/A time=00:02:09.50 bitrate=N/A speed=13.2x    frame= 3300 fps=319 q=-0.0 size=N/A time=00:02:17.63 bitrate=N/A speed=13.3x    frame= 3502 fps=323 q=-0.0 size=N/A time=00:02:26.06 bitrate=N/A speed=13.5x    frame= 3707 fps=326 q=-0.0 size=N/A time=00:02:34.61 bitrate=N/A speed=13.6x    frame= 3905 fps=329 q=-0.0 size=N/A time=00:02:42.87 bitrate=N/A speed=13.7x    frame= 4099 fps=331 q=-0.0 size=N/A time=00:02:50.96 bitrate=N/A speed=13.8x    frame= 4301 fps=333 q=-0.0 size=N/A time=00:02:59.38 bitrate=N/A speed=13.9x    frame= 4491 fps=334 q=-0.0 size=N/A time=00:03:07.31 bitrate=N/A speed=13.9x    frame= 4692 fps=337 q=-0.0 size=N/A time=00:03:15.69 bitrate=N/A speed=  14x    frame= 4893 fps=338 q=-0.0 size=N/A time=00:03:24.07 bitrate=N/A speed=14.1x    frame= 5086 fps=340 q=-0.0 size=N/A time=00:03:32.12 bitrate=N/A speed=14.2x    frame= 5276 fps=341 q=-0.0 size=N/A time=00:03:40.05 bitrate=N/A speed=14.2x    frame= 5476 fps=342 q=-0.0 size=N/A time=00:03:48.39 bitrate=N/A speed=14.3x    frame= 5664 fps=343 q=-0.0 size=N/A time=00:03:56.23 bitrate=N/A speed=14.3x    frame= 5855 fps=344 q=-0.0 size=N/A time=00:04:04.20 bitrate=N/A speed=14.3x    frame= 6052 fps=345 q=-0.0 size=N/A time=00:04:12.41 bitrate=N/A speed=14.4x    frame= 6239 fps=345 q=-0.0 size=N/A time=00:04:20.21 bitrate=N/A speed=14.4x    frame= 6434 fps=346 q=-0.0 size=N/A time=00:04:28.35 bitrate=N/A speed=14.4x    frame= 6639 fps=347 q=-0.0 size=N/A time=00:04:36.90 bitrate=N/A speed=14.5x    frame= 6831 fps=348 q=-0.0 size=N/A time=00:04:44.90 bitrate=N/A speed=14.5x    frame= 7027 fps=349 q=-0.0 size=N/A time=00:04:53.08 bitrate=N/A speed=14.6x    frame= 7214 fps=349 q=-0.0 size=N/A time=00:05:00.88 bitrate=N/A speed=14.6x    frame= 7409 fps=350 q=-0.0 size=N/A time=00:05:09.01 bitrate=N/A speed=14.6x    frame= 7592 fps=350 q=-0.0 size=N/A time=00:05:16.64 bitrate=N/A speed=14.6x    frame= 7780 fps=350 q=-0.0 size=N/A time=00:05:24.49 bitrate=N/A speed=14.6x    frame= 7968 fps=351 q=-0.0 size=N/A time=00:05:32.33 bitrate=N/A speed=14.6x    frame= 8161 fps=351 q=-0.0 size=N/A time=00:05:40.38 bitrate=N/A speed=14.7x    frame= 8359 fps=352 q=-0.0 size=N/A time=00:05:48.63 bitrate=N/A speed=14.7x    frame= 8548 fps=352 q=-0.0 size=N/A time=00:05:56.52 bitrate=N/A speed=14.7x    frame= 8736 fps=353 q=-0.0 size=N/A time=00:06:04.36 bitrate=N/A speed=14.7x    frame= 8932 fps=353 q=-0.0 size=N/A time=00:06:12.53 bitrate=N/A speed=14.7x    frame= 9133 fps=354 q=-0.0 size=N/A time=00:06:20.92 bitrate=N/A speed=14.8x    frame= 9319 fps=354 q=-0.0 size=N/A time=00:06:28.67 bitrate=N/A speed=14.8x    frame= 9513 fps=355 q=-0.0 size=N/A time=00:06:36.77 bitrate=N/A speed=14.8x    frame= 9710 fps=355 q=-0.0 size=N/A time=00:06:44.98 bitrate=N/A speed=14.8x    frame= 9903 fps=355 q=-0.0 size=N/A time=00:06:53.03 bitrate=N/A speed=14.8x    frame=10098 fps=356 q=-0.0 size=N/A time=00:07:01.17 bitrate=N/A speed=14.8x    frame=10285 fps=356 q=-0.0 size=N/A time=00:07:08.97 bitrate=N/A speed=14.8x    frame=10477 fps=356 q=-0.0 size=N/A time=00:07:16.97 bitrate=N/A speed=14.9x    frame=10664 fps=356 q=-0.0 size=N/A time=00:07:24.77 bitrate=N/A speed=14.9x    frame=10852 fps=356 q=-0.0 size=N/A time=00:07:32.61 bitrate=N/A speed=14.9x    frame=11037 fps=356 q=-0.0 size=N/A time=00:07:40.33 bitrate=N/A speed=14.9x    frame=11223 fps=356 q=-0.0 size=N/A time=00:07:48.09 bitrate=N/A speed=14.9x    frame=11400 fps=356 q=-0.0 size=N/A time=00:07:55.47 bitrate=N/A speed=14.9x    frame=11593 fps=357 q=-0.0 size=N/A time=00:08:03.52 bitrate=N/A speed=14.9x    frame=11782 fps=357 q=-0.0 size=N/A time=00:08:11.40 bitrate=N/A speed=14.9x    frame=11977 fps=357 q=-0.0 size=N/A time=00:08:19.54 bitrate=N/A speed=14.9x    frame=12171 fps=357 q=-0.0 size=N/A time=00:08:27.63 bitrate=N/A speed=14.9x    frame=12373 fps=358 q=-0.0 size=N/A time=00:08:36.05 bitrate=N/A speed=14.9x    frame=12567 fps=358 q=-0.0 size=N/A time=00:08:44.14 bitrate=N/A speed=14.9x    frame=12762 fps=358 q=-0.0 size=N/A time=00:08:52.28 bitrate=N/A speed=14.9x    frame=12967 fps=359 q=-0.0 size=N/A time=00:09:00.83 bitrate=N/A speed=  15x    frame=13157 fps=359 q=-0.0 size=N/A time=00:09:08.75 bitrate=N/A speed=  15x    frame=13353 fps=359 q=-0.0 size=N/A time=00:09:16.93 bitrate=N/A speed=  15x    frame=13536 fps=359 q=-0.0 size=N/A time=00:09:24.56 bitrate=N/A speed=  15x    frame=13743 fps=360 q=-0.0 size=N/A time=00:09:33.19 bitrate=N/A speed=  15x    frame=13931 fps=360 q=-0.0 size=N/A time=00:09:41.03 bitrate=N/A speed=  15x    frame=14111 fps=360 q=-0.0 size=N/A time=00:09:48.54 bitrate=N/A speed=  15x    frame=14299 fps=360 q=-0.0 size=N/A time=00:09:56.38 bitrate=N/A speed=  15x    frame=14500 fps=360 q=-0.0 size=N/A time=00:10:04.77 bitrate=N/A speed=  15x    frame=14691 fps=360 q=-0.0 size=N/A time=00:10:12.73 bitrate=N/A speed=  15x    frame=14884 fps=360 q=-0.0 size=N/A time=00:10:20.78 bitrate=N/A speed=  15x    frame=15069 fps=360 q=-0.0 size=N/A time=00:10:28.50 bitrate=N/A speed=  15x    frame=15241 fps=360 q=-0.0 size=N/A time=00:10:35.67 bitrate=N/A speed=  15x    frame=15436 fps=360 q=-0.0 size=N/A time=00:10:43.80 bitrate=N/A speed=  15x    frame=15629 fps=361 q=-0.0 size=N/A time=00:10:51.85 bitrate=N/A speed=  15x    frame=15824 fps=361 q=-0.0 size=N/A time=00:10:59.99 bitrate=N/A speed=  15x    frame=16025 fps=361 q=-0.0 size=N/A time=00:11:08.37 bitrate=N/A speed=15.1x    frame=16217 fps=361 q=-0.0 size=N/A time=00:11:16.38 bitrate=N/A speed=15.1x    frame=16418 fps=361 q=-0.0 size=N/A time=00:11:24.76 bitrate=N/A speed=15.1x    frame=16606 fps=362 q=-0.0 size=N/A time=00:11:32.60 bitrate=N/A speed=15.1x    frame=16797 fps=362 q=-0.0 size=N/A time=00:11:40.57 bitrate=N/A speed=15.1x    frame=16993 fps=362 q=-0.0 size=N/A time=00:11:48.74 bitrate=N/A speed=15.1x    frame=17183 fps=362 q=-0.0 size=N/A time=00:11:56.67 bitrate=N/A speed=15.1x    frame=17377 fps=362 q=-0.0 size=N/A time=00:12:04.76 bitrate=N/A speed=15.1x    frame=17563 fps=362 q=-0.0 size=N/A time=00:12:12.52 bitrate=N/A speed=15.1x    frame=17752 fps=362 q=-0.0 size=N/A time=00:12:20.40 bitrate=N/A speed=15.1x    frame=17939 fps=362 q=-0.0 size=N/A time=00:12:28.20 bitrate=N/A speed=15.1x    frame=18141 fps=362 q=-0.0 size=N/A time=00:12:36.63 bitrate=N/A speed=15.1x    frame=18314 fps=362 q=-0.0 size=N/A time=00:12:43.84 bitrate=N/A speed=15.1x    frame=18506 fps=362 q=-0.0 size=N/A time=00:12:51.85 bitrate=N/A speed=15.1x    frame=18703 fps=362 q=-0.0 size=N/A time=00:13:00.07 bitrate=N/A speed=15.1x    frame=18896 fps=362 q=-0.0 size=N/A time=00:13:08.12 bitrate=N/A speed=15.1x    frame=19085 fps=363 q=-0.0 size=N/A time=00:13:16.00 bitrate=N/A speed=15.1x    frame=19277 fps=363 q=-0.0 size=N/A time=00:13:24.01 bitrate=N/A speed=15.1x    frame=19466 fps=363 q=-0.0 size=N/A time=00:13:31.89 bitrate=N/A speed=15.1x    frame=19661 fps=363 q=-0.0 size=N/A time=00:13:40.02 bitrate=N/A speed=15.1x    frame=19859 fps=363 q=-0.0 size=N/A time=00:13:48.28 bitrate=N/A speed=15.1x    frame=20053 fps=363 q=-0.0 size=N/A time=00:13:56.37 bitrate=N/A speed=15.1x    frame=20247 fps=363 q=-0.0 size=N/A time=00:14:04.46 bitrate=N/A speed=15.1x    frame=20436 fps=363 q=-0.0 size=N/A time=00:14:12.35 bitrate=N/A speed=15.2x    frame=20614 fps=363 q=-0.0 size=N/A time=00:14:19.77 bitrate=N/A speed=15.1x    frame=20798 fps=363 q=-0.0 size=N/A time=00:14:27.44 bitrate=N/A speed=15.1x    frame=20998 fps=363 q=-0.0 size=N/A time=00:14:35.79 bitrate=N/A speed=15.2x    frame=21194 fps=363 q=-0.0 size=N/A time=00:14:43.96 bitrate=N/A speed=15.2x    frame=21404 fps=364 q=-0.0 size=N/A time=00:14:52.72 bitrate=N/A speed=15.2x    frame=21597 fps=364 q=-0.0 size=N/A time=00:15:00.77 bitrate=N/A speed=15.2x    frame=21796 fps=364 q=-0.0 size=N/A time=00:15:09.07 bitrate=N/A speed=15.2x    frame=21993 fps=364 q=-0.0 size=N/A time=00:15:17.29 bitrate=N/A speed=15.2x    frame=22192 fps=364 q=-0.0 size=N/A time=00:15:25.59 bitrate=N/A speed=15.2x    frame=22378 fps=364 q=-0.0 size=N/A time=00:15:33.34 bitrate=N/A speed=15.2x    frame=22576 fps=365 q=-0.0 size=N/A time=00:15:41.60 bitrate=N/A speed=15.2x    frame=22759 fps=364 q=-0.0 size=N/A time=00:15:49.23 bitrate=N/A speed=15.2x    frame=22948 fps=364 q=-0.0 size=N/A time=00:15:57.12 bitrate=N/A speed=15.2x    frame=23132 fps=364 q=-0.0 size=N/A time=00:16:04.79 bitrate=N/A speed=15.2x    frame=23326 fps=365 q=-0.0 size=N/A time=00:16:12.88 bitrate=N/A speed=15.2x    frame=23521 fps=365 q=-0.0 size=N/A time=00:16:21.02 bitrate=N/A speed=15.2x    frame=23717 fps=365 q=-0.0 size=N/A time=00:16:29.19 bitrate=N/A speed=15.2x    frame=23904 fps=365 q=-0.0 size=N/A time=00:16:36.99 bitrate=N/A speed=15.2x    frame=24102 fps=365 q=-0.0 size=N/A time=00:16:45.25 bitrate=N/A speed=15.2x    frame=24289 fps=365 q=-0.0 size=N/A time=00:16:53.05 bitrate=N/A speed=15.2x    frame=24491 fps=365 q=-0.0 size=N/A time=00:17:01.47 bitrate=N/A speed=15.2x    frame=24685 fps=365 q=-0.0 size=N/A time=00:17:09.57 bitrate=N/A speed=15.2x    frame=24877 fps=365 q=-0.0 size=N/A time=00:17:17.57 bitrate=N/A speed=15.2x    frame=25068 fps=365 q=-0.0 size=N/A time=00:17:25.54 bitrate=N/A speed=15.2x    frame=25262 fps=365 q=-0.0 size=N/A time=00:17:33.63 bitrate=N/A speed=15.2x    frame=25457 fps=365 q=-0.0 size=N/A time=00:17:41.76 bitrate=N/A speed=15.2x    frame=25650 fps=365 q=-0.0 size=N/A time=00:17:49.81 bitrate=N/A speed=15.2x    frame=25843 fps=366 q=-0.0 size=N/A time=00:17:57.86 bitrate=N/A speed=15.2x    frame=26035 fps=366 q=-0.0 size=N/A time=00:18:05.87 bitrate=N/A speed=15.2x    frame=26230 fps=366 q=-0.0 size=N/A time=00:18:14.00 bitrate=N/A speed=15.3x    frame=26429 fps=366 q=-0.0 size=N/A time=00:18:22.30 bitrate=N/A speed=15.3x    frame=26612 fps=366 q=-0.0 size=N/A time=00:18:29.94 bitrate=N/A speed=15.3x    frame=26821 fps=366 q=-0.0 size=N/A time=00:18:38.65 bitrate=N/A speed=15.3x    frame=27003 fps=366 q=-0.0 size=N/A time=00:18:46.25 bitrate=N/A speed=15.3x    frame=27180 fps=366 q=-0.0 size=N/A time=00:18:53.63 bitrate=N/A speed=15.3x    frame=27362 fps=366 q=-0.0 size=N/A time=00:19:01.22 bitrate=N/A speed=15.3x    frame=27556 fps=366 q=-0.0 size=N/A time=00:19:09.31 bitrate=N/A speed=15.3x    frame=27754 fps=366 q=-0.0 size=N/A time=00:19:17.57 bitrate=N/A speed=15.3x    frame=27939 fps=366 q=-0.0 size=N/A time=00:19:25.28 bitrate=N/A speed=15.3x    frame=28131 fps=366 q=-0.0 size=N/A time=00:19:33.29 bitrate=N/A speed=15.3x    frame=28331 fps=366 q=-0.0 size=N/A time=00:19:41.63 bitrate=N/A speed=15.3x    frame=28521 fps=366 q=-0.0 size=N/A time=00:19:49.56 bitrate=N/A speed=15.3x    frame=28710 fps=366 q=-0.0 size=N/A time=00:19:57.44 bitrate=N/A speed=15.3x    frame=28879 fps=366 q=-0.0 size=N/A time=00:20:04.49 bitrate=N/A speed=15.3x    frame=29051 fps=366 q=-0.0 size=N/A time=00:20:11.66 bitrate=N/A speed=15.2x    frame=29228 fps=365 q=-0.0 size=N/A time=00:20:19.05 bitrate=N/A speed=15.2x    frame=29417 fps=365 q=-0.0 size=N/A time=00:20:26.93 bitrate=N/A speed=15.2x    frame=29577 fps=365 q=-0.0 size=N/A time=00:20:33.60 bitrate=N/A speed=15.2x    frame=29758 fps=365 q=-0.0 size=N/A time=00:20:41.15 bitrate=N/A speed=15.2x    frame=29933 fps=365 q=-0.0 size=N/A time=00:20:48.45 bitrate=N/A speed=15.2x    frame=30099 fps=365 q=-0.0 size=N/A time=00:20:55.37 bitrate=N/A speed=15.2x    frame=30292 fps=365 q=-0.0 size=N/A time=00:21:03.42 bitrate=N/A speed=15.2x    frame=30482 fps=365 q=-0.0 size=N/A time=00:21:11.35 bitrate=N/A speed=15.2x    frame=30672 fps=365 q=-0.0 size=N/A time=00:21:19.27 bitrate=N/A speed=15.2x    frame=30868 fps=365 q=-0.0 size=N/A time=00:21:27.45 bitrate=N/A speed=15.2x    frame=31065 fps=365 q=-0.0 size=N/A time=00:21:35.66 bitrate=N/A speed=15.2x    frame=31257 fps=365 q=-0.0 size=N/A time=00:21:43.67 bitrate=N/A speed=15.2x    frame=31449 fps=365 q=-0.0 size=N/A time=00:21:51.68 bitrate=N/A speed=15.2x    frame=31650 fps=365 q=-0.0 size=N/A time=00:22:00.06 bitrate=N/A speed=15.2x    frame=31834 fps=365 q=-0.0 size=N/A time=00:22:07.74 bitrate=N/A speed=15.2x    frame=32007 fps=365 q=-0.0 size=N/A time=00:22:14.95 bitrate=N/A speed=15.2x    frame=32206 fps=365 q=-0.0 size=N/A time=00:22:23.25 bitrate=N/A speed=15.2x    frame=32394 fps=365 q=-0.0 size=N/A time=00:22:31.09 bitrate=N/A speed=15.2x    frame=32586 fps=365 q=-0.0 size=N/A time=00:22:39.10 bitrate=N/A speed=15.2x    frame=32732 fps=365 q=-0.0 size=N/A time=00:22:45.19 bitrate=N/A speed=15.2x    frame=32896 fps=364 q=-0.0 size=N/A time=00:22:52.03 bitrate=N/A speed=15.2x    frame=33077 fps=364 q=-0.0 size=N/A time=00:22:59.58 bitrate=N/A speed=15.2x    frame=33260 fps=364 q=-0.0 size=N/A time=00:23:07.26 bitrate=N/A speed=15.2x    frame=33436 fps=364 q=-0.0 size=N/A time=00:23:14.55 bitrate=N/A speed=15.2x    frame=33579 fps=364 q=-0.0 size=N/A time=00:23:20.52 bitrate=N/A speed=15.2x    frame=33739 fps=363 q=-0.0 size=N/A time=00:23:27.19 bitrate=N/A speed=15.1x    frame=33858 fps=362 q=-0.0 size=N/A time=00:23:32.16 bitrate=N/A speed=15.1x    frame=34010 fps=362 q=-0.0 size=N/A time=00:23:38.50 bitrate=N/A speed=15.1x    frame=34173 fps=362 q=-0.0 size=N/A time=00:23:45.29 bitrate=N/A speed=15.1x    frame=34321 fps=361 q=-0.0 size=N/A time=00:23:51.47 bitrate=N/A speed=15.1x    frame=34448 fps=361 q=-0.0 size=N/A time=00:23:56.76 bitrate=N/A speed=  15x    frame=34628 fps=361 q=-0.0 size=N/A time=00:24:04.27 bitrate=N/A speed=  15x    [Parsed_psnr_16 @ 0000024dcfe03e80] PSNR y:48.984573 u:50.358621 v:50.401814 average:49.401847 min:37.980754 max:inf
[out#0/null @ 0000024dc88afe80] video:14903KiB audio:271276KiB subtitle:0KiB other streams:0KiB global headers:0KiB muxing overhead: unknown
frame=34683 fps=361 q=-0.0 Lsize=N/A time=00:24:06.57 bitrate=N/A speed=  15x    
